<svg xmlns="http://www.w3.org/2000/svg" xmlns:xlink="http://www.w3.org/1999/xlink" viewBox="0 0 50 50" fill="#008CFF">
  <path d="M32 0.17382812L32 4.84375L24 0.27734375L24 6.0253906C12.876805 6.5484735 4 15.748824 4 27C4 38.586407 13.413593 48 25 48C36.586407 48 46 38.586407 46 27 A 1.0001 1.0001 0 1 0 44 27C44 37.505593 35.505593 46 25 46C14.494407 46 6 37.505593 6 27C6 16.831946 13.963508 8.5726073 24 8.0507812L24 13.722656L32 9.15625L32 13.826172L33.539062 12.841797L42.677734 7L32 0.17382812 z M 26 3.7226562L31.742188 7L26 10.277344L26 7.1679688 A 1.0001 1.0001 0 0 0 26 6.8417969L26 3.7226562 z M 34 3.8261719L38.966797 7L34 10.173828L34 8.2890625L34 5.7109375L34 3.8261719 z M 19 20C19 22.25 17 23 15 23L15 25L19 25L19 36L19.099609 36L21 36L21 20L19 20 z M 25.25 20L24.15625 27.351562L25.890625 28.167969C26.554625 27.426969 27.506 27 28.5 27C30.43 27 32 28.57 32 30.5C32 32.43 30.43 34 28.5 34C26.529 34 25 32.388 25 31L23 31C23 33.663 25.57 36 28.5 36C31.533 36 34 33.532 34 30.5C34 27.468 31.533 25 28.5 25C27.8 25 27.114563 25.133719 26.476562 25.386719L26.986328 22L33 22L33 20L25.25 20 z" fill="#008CFF" />
</svg>