<svg xmlns="http://www.w3.org/2000/svg" xmlns:xlink="http://www.w3.org/1999/xlink" viewBox="0 0 50 50" fill="#008CFF">
  <path d="M27.5 2C27.039063 2 26.644531 2.304688 26.53125 2.75L26.125 4.4375C24.648438 4.882813 23.285156 5.65625 22.15625 6.71875L20.5 6.25C20.058594 6.125 19.574219 6.289063 19.34375 6.6875L17.84375 9.3125C17.613281 9.710938 17.703125 10.210938 18.03125 10.53125L19.25 11.71875C19.074219 12.464844 19 13.226563 19 14C19 14.773438 19.074219 15.535156 19.25 16.28125L18.03125 17.46875C17.703125 17.789063 17.613281 18.289063 17.84375 18.6875L19.34375 21.3125C19.574219 21.710938 20.058594 21.871094 20.5 21.75L22.15625 21.28125C23.285156 22.34375 24.648438 23.117188 26.125 23.5625L26.53125 25.25C26.640625 25.695313 27.039063 26 27.5 26L30.5 26C30.960938 26 31.355469 25.695313 31.46875 25.25L31.875 23.5625C33.351563 23.117188 34.714844 22.34375 35.84375 21.28125L37.5 21.75C37.9375 21.878906 38.425781 21.710938 38.65625 21.3125L40.15625 18.6875C40.386719 18.289063 40.296875 17.789063 39.96875 17.46875L38.75 16.28125C38.925781 15.53125 39 14.773438 39 14C39 13.226563 38.925781 12.46875 38.75 11.71875L39.96875 10.53125C40.296875 10.210938 40.386719 9.710938 40.15625 9.3125L38.65625 6.6875C38.425781 6.289063 37.9375 6.125 37.5 6.25L35.84375 6.71875C34.714844 5.65625 33.351563 4.882813 31.875 4.4375L31.46875 2.75C31.355469 2.304688 30.960938 2 30.5 2 Z M 29 11C30.667969 11 32 12.332031 32 14C32 15.667969 30.667969 17 29 17C27.332031 17 26 15.667969 26 14C26 12.332031 27.332031 11 29 11 Z M 11.5 20C11.039063 20 10.644531 20.304688 10.53125 20.75L10.125 22.4375C8.648438 22.882813 7.285156 23.65625 6.15625 24.71875L4.5 24.25C4.058594 24.125 3.574219 24.289063 3.34375 24.6875L1.84375 27.3125C1.613281 27.710938 1.703125 28.210938 2.03125 28.53125L3.25 29.71875C3.074219 30.464844 3 31.226563 3 32C3 32.773438 3.074219 33.535156 3.25 34.28125L2.03125 35.46875C1.703125 35.789063 1.613281 36.289063 1.84375 36.6875L3.34375 39.3125C3.574219 39.710938 4.058594 39.871094 4.5 39.75L6.15625 39.28125C7.285156 40.34375 8.648438 41.117188 10.125 41.5625L10.53125 43.25C10.640625 43.695313 11.039063 44 11.5 44L14.5 44C14.960938 44 15.355469 43.695313 15.46875 43.25L15.875 41.5625C17.351563 41.117188 18.714844 40.34375 19.84375 39.28125L21.5 39.75C21.9375 39.878906 22.425781 39.710938 22.65625 39.3125L24.15625 36.6875C24.386719 36.289063 24.296875 35.789063 23.96875 35.46875L22.75 34.28125C22.925781 33.53125 23 32.773438 23 32C23 31.226563 22.925781 30.46875 22.75 29.71875L23.96875 28.53125C24.296875 28.210938 24.386719 27.710938 24.15625 27.3125L22.65625 24.6875C22.425781 24.289063 21.9375 24.125 21.5 24.25L19.84375 24.71875C18.714844 23.65625 17.351563 22.882813 15.875 22.4375L15.46875 20.75C15.359375 20.304688 14.960938 20 14.5 20 Z M 34.5 25C34.039063 25 33.644531 25.304688 33.53125 25.75L33.125 27.4375C31.648438 27.882813 30.285156 28.65625 29.15625 29.71875L27.5 29.25C27.058594 29.125 26.574219 29.289063 26.34375 29.6875L24.84375 32.3125C24.613281 32.710938 24.703125 33.210938 25.03125 33.53125L26.25 34.71875C26.074219 35.464844 26 36.226563 26 37C26 37.773438 26.074219 38.535156 26.25 39.28125L25.03125 40.46875C24.703125 40.789063 24.613281 41.289063 24.84375 41.6875L26.34375 44.3125C26.574219 44.710938 27.058594 44.871094 27.5 44.75L29.15625 44.28125C30.285156 45.34375 31.648438 46.117188 33.125 46.5625L33.53125 48.25C33.640625 48.695313 34.039063 49 34.5 49L37.5 49C37.960938 49 38.355469 48.695313 38.46875 48.25L38.875 46.5625C40.351563 46.117188 41.714844 45.34375 42.84375 44.28125L44.5 44.75C44.9375 44.878906 45.425781 44.710938 45.65625 44.3125L47.15625 41.6875C47.386719 41.289063 47.296875 40.789063 46.96875 40.46875L45.75 39.28125C45.925781 38.53125 46 37.773438 46 37C46 36.226563 45.925781 35.46875 45.75 34.71875L46.96875 33.53125C47.296875 33.210938 47.386719 32.710938 47.15625 32.3125L45.65625 29.6875C45.425781 29.289063 44.9375 29.125 44.5 29.25L42.84375 29.71875C41.714844 28.65625 40.351563 27.882813 38.875 27.4375L38.46875 25.75C38.359375 25.304688 37.960938 25 37.5 25 Z M 13 29C14.667969 29 16 30.332031 16 32C16 33.667969 14.667969 35 13 35C11.332031 35 10 33.667969 10 32C10 30.332031 11.332031 29 13 29 Z M 36 33C38.210938 33 40 34.789063 40 37C40 39.210938 38.210938 41 36 41C33.789063 41 32 39.210938 32 37C32 34.789063 33.789063 33 36 33Z" fill="#008CFF" />
</svg>