<svg xmlns="http://www.w3.org/2000/svg" xmlns:xlink="http://www.w3.org/1999/xlink" viewBox="0 0 50 50" fill="#008CFF">
  <path d="M18 0.17382812L7.3222656 7L8.6386719 7.8417969L18 13.826172L18 9.15625L26 13.722656L26 8.0507812C36.036492 8.5726073 44 16.831946 44 27C44 37.505593 35.505593 46 25 46C14.494407 46 6 37.505593 6 27 A 1.0001 1.0001 0 1 0 4 27C4 38.586407 13.413593 48 25 48C36.586407 48 46 38.586407 46 27C46 15.748824 37.123195 6.5484735 26 6.0253906L26 0.27734375L18 4.84375L18 0.17382812 z M 24 3.7226562L24 6.8320312 A 1.0001 1.0001 0 0 0 24 7.1582031L24 10.277344L18.257812 7L24 3.7226562 z M 16 3.8261719L16 5.7109375L16 8.2890625L16 10.173828L11.033203 7L16 3.8261719 z M 19 19C19 21.25 17 22 15 22L15 24L19 24L19 35L19.099609 35L21 35L21 19L19 19 z M 25.25 19L24.15625 26.351562L25.890625 27.167969C26.554625 26.426969 27.506 26 28.5 26C30.43 26 32 27.57 32 29.5C32 31.43 30.43 33 28.5 33C26.529 33 25 31.388 25 30L23 30C23 32.663 25.57 35 28.5 35C31.533 35 34 32.532 34 29.5C34 26.468 31.533 24 28.5 24C27.8 24 27.114563 24.133719 26.476562 24.386719L26.986328 21L33 21L33 19L25.25 19 z" fill="#008CFF" />
</svg>