<svg xmlns="http://www.w3.org/2000/svg" xmlns:xlink="http://www.w3.org/1999/xlink" viewBox="0 0 24 24" fill="#008CFF">
  <path d="M9 0L4 7L0 7L0 17L4 17L9 24L11 24L11 0 Z M 20.28125 1.375L18.71875 2.625C20.792969 5.265625 22 8.429688 22 12C22 15.570313 20.773438 18.855469 18.71875 21.375L20.28125 22.625C22.625 19.746094 24 16.027344 24 12C24 7.972656 22.605469 4.332031 20.28125 1.375 Z M 17.15625 4.34375L15.625 5.65625C17.089844 7.394531 18 9.546875 18 12C18 14.34375 17.078125 16.617188 15.625 18.34375L17.15625 19.65625C18.902344 17.582031 20 14.855469 20 12C20 9.054688 18.890625 6.402344 17.15625 4.34375 Z M 14.125 7.21875L12.65625 8.5625C13.507813 9.496094 14 10.648438 14 12C14 13.351563 13.507813 14.503906 12.65625 15.4375L14.125 16.78125C15.273438 15.515625 16 13.851563 16 12C16 10.148438 15.273438 8.484375 14.125 7.21875Z" fill="#008CFF" />
</svg>